<?xml version="1.0" standalone="yes"?>
<svg xmlns="http://www.w3.org/2000/svg" width="32" height="32">
<path style="fill:#091c0e; stroke:none;" d="M0 0L0 32L32 32L32 0L0 0z"/>
<path style="fill:#4aad35; stroke:none;" d="M14 0L15 1L14 0z"/>
<path style="fill:#7b6f33; stroke:none;" d="M15 0L15 1L18 1L15 0M12 2L13 3L12 2M19 2L20 3L19 2M6 3L7 4L6 3M25 3L26 4L25 3M3 6L4 7L3 6z"/>
<path style="fill:#8ac852; stroke:none;" d="M7 7L8 8L7 7z"/>
<path style="fill:#d78e3a; stroke:none;" d="M15 21L15 20C1.40103 21.6706 4.73198 14.5943 10 7C-2.88532 10.3943 2.18104 27.1605 15 21z"/>
<path style="fill:#8ac852; stroke:none;" d="M10 7L11 8L10 7z"/>
<path style="fill:#7b6f33; stroke:none;" d="M10 8L11 9L10 8z"/>
<path style="fill:#8ac852; stroke:none;" d="M18 8L18 10L21 10L21 8L18 8z"/>
<path style="fill:#4aad35; stroke:none;" d="M7 9L8 10L7 9z"/>
<path style="fill:#7b6f33; stroke:none;" d="M8 9L9 10L8 9M17 9L18 10L17 9M18 10L19 11L18 10z"/>
<path style="fill:#4aad35; stroke:none;" d="M19 10L20 11L19 10z"/>
<path style="fill:#7b6f33; stroke:none;" d="M2 11L3 12L2 11z"/>
<path style="fill:#8ac852; stroke:none;" d="M4 11L7 15L6 11L4 11z"/>
<path style="fill:#d78e3a; stroke:none;" d="M14 14L17 12L14 14z"/>
<path style="fill:#7b6f33; stroke:none;" d="M17.6667 12.3333L18.3333 12.6667L17.6667 12.3333M0 13L1 14L0 13M7 13L8 14L7 13M13 13L14 14L13 13z"/>
<path style="fill:#8ac852; stroke:none;" d="M13 16L18 14L21 15C18.5982 12.3576 15.1009 13.4022 13 16z"/>
<path style="fill:#4aad35; stroke:none;" d="M9.66667 15.3333L10.3333 15.6667L9.66667 15.3333M16 15L17 16L16 15z"/>
<path style="fill:#8ac852; stroke:none;" d="M3 16L4 17L3 16z"/>
<path style="fill:#7b6f33; stroke:none;" d="M8 16L8 20L9 20L8 16z"/>
<path style="fill:#8ac852; stroke:none;" d="M9 16L12 21L11 16L9 16z"/>
<path style="fill:#7b6f33; stroke:none;" d="M15 16L16 17L15 16z"/>
<path style="fill:#4aad35; stroke:none;" d="M4 18L5 19L4 18M8 18L9 19L8 18z"/>
<path style="fill:#7b6f33; stroke:none;" d="M0 19L1 20L0 19M13.6667 19.3333L14.3333 19.6667L13.6667 19.3333M18 19L18 20L24 19L18 19M25 19C26.7685 21.0339 28.2315 21.0339 30 19L25 19M31 19L32 20L31 19M2 20L3 21L2 20M6 20L7 21L6 20M1 22L2 23L1 22M2 24L3 25L2 24M29 24L30 25L29 24M5 25L7 27L5 25M26 25L24 28L26 25M7 29L8 30L7 29z"/>
</svg>
