<?xml version="1.0" encoding="UTF-8" standalone="no"?>
<svg
   xmlns:dc="http://purl.org/dc/elements/1.1/"
   xmlns:cc="http://creativecommons.org/ns#"
   xmlns:rdf="http://www.w3.org/1999/02/22-rdf-syntax-ns#"
   xmlns:svg="http://www.w3.org/2000/svg"
   xmlns="http://www.w3.org/2000/svg"
   xmlns:sodipodi="http://sodipodi.sourceforge.net/DTD/sodipodi-0.dtd"
   xmlns:inkscape="http://www.inkscape.org/namespaces/inkscape"
   version="1.1"
   id="svg2"
   width="640"
   height="640"
   viewBox="0 0 640 640"
   sodipodi:docname="lggipp.svg"
   inkscape:export-filename="/home/work/Downloads/lggipp.png"
   inkscape:export-xdpi="300"
   inkscape:export-ydpi="300"
   inkscape:version="1.0.2 (1.0.2+r75+1)">
  <metadata
     id="metadata8">
    <rdf:RDF>
      <cc:Work
         rdf:about="">
        <dc:format>image/svg+xml</dc:format>
        <dc:type
           rdf:resource="http://purl.org/dc/dcmitype/StillImage" />
        <dc:title></dc:title>
      </cc:Work>
    </rdf:RDF>
  </metadata>
  <defs
     id="defs6" />
  <sodipodi:namedview
     pagecolor="#ffffff"
     bordercolor="#666666"
     borderopacity="1"
     objecttolerance="10"
     gridtolerance="10"
     guidetolerance="10"
     inkscape:pageopacity="0"
     inkscape:pageshadow="2"
     inkscape:window-width="3381"
     inkscape:window-height="1412"
     id="namedview4"
     showgrid="false"
     inkscape:zoom="1.109375"
     inkscape:cx="320"
     inkscape:cy="320"
     inkscape:window-x="59"
     inkscape:window-y="0"
     inkscape:window-maximized="1"
     inkscape:current-layer="g10" />
  <g
     inkscape:groupmode="layer"
     inkscape:label="Image"
     id="g10">
    <g
       id="g849"
       transform="translate(-715.40372,27.386334)">
      <g
         id="g837"
         transform="translate(714.4046,-20.03268)">
        <path
           style="fill:#87c654;fill-opacity:1"
           d="M 291.5,621.86259 C 200.01742,611.8473 122.08688,566.18395 69.806135,491.96119 59.517051,477.35382 44.797714,450.82149 39.037939,436.5 34.321182,424.77194 32.613049,420.15715 29.988756,412.0522 14.659325,364.70832 10.988841,313.00092 19.479171,264 40.056645,145.23957 130.7494,48.26277 248,19.645103 310.35568,4.4257854 377.21282,9.2612058 436.5,33.278303 c 21.86364,8.856909 47.85374,23.410624 65.07997,36.44293 4.20114,3.178322 8.71444,6.492703 10.02955,7.365291 5.91548,3.924953 27.25777,24.064656 36.77881,34.706396 37.67893,42.1141 61.96184,90.42341 73.04542,145.31931 7.90123,39.13396 7.52769,86.35842 -0.98783,124.88777 -14.23465,64.40609 -48.05813,121.76635 -97.50518,165.35618 -46.72996,41.1946 -106.29776,67.2129 -169.64755,74.09945 -15.36824,1.67063 -48.27111,1.88732 -61.79319,0.40696 z M 351,607.91289 C 431.14912,599.6907 503.22653,559.35524 553.66304,494.5 c 10.27006,-13.20605 25.39098,-37.94661 31.78134,-52 1.50058,-3.3 3.34285,-7.35 4.09395,-9 5.3777,-11.81369 12.471,-32.99716 15.90542,-47.5 10.82424,-45.70858 11.1401,-88.11397 0.99651,-133.78651 C 601.87767,231.66999 590.03728,199.0336 581.57101,183.6649 580.30912,181.3742 577.80575,176.8 576.00798,173.5 574.2102,170.2 568.9824,161.85582 564.39064,154.95738 531.17554,105.05655 484.69678,67.407876 428.77821,45.108751 389.3614,29.390172 343.24949,21.938713 303.78846,24.911017 262.31405,28.034974 226.39933,37.642085 190.85028,55.121738 145.70074,77.322005 102.74687,115.58255 76.474897,157 c -2.616576,4.125 -6.075631,9.525 -7.686789,12 -4.727137,7.26165 -17.266327,33.58944 -21.670376,45.5 -8.2135,22.21305 -13.89183,45.90704 -16.654405,69.49387 -1.894613,16.17619 -1.894613,49.83607 0,66.01226 9.746707,83.21729 53.331822,156.93509 121.426203,205.37454 C 209.68838,596.49631 280.40817,615.15463 351,607.91289 Z M 171.5,443.93337 C 91.213472,435.83028 31.736159,361.1313 41.370006,280.5 c 3.947211,-33.03652 15.823828,-59.93509 36.917364,-83.61173 16.145304,-18.12246 33.89931,-30.24487 57.83218,-39.48776 21.66005,-8.36512 50.02675,-11.02811 72.52127,-6.80811 3.39016,0.63599 2.47334,1.13285 -15.77071,8.54673 -12.67842,5.15216 -21.61563,8.17745 -25.87011,8.75718 -20.36612,2.77512 -40.89499,10.98265 -56.43261,22.562 -7.34625,5.47476 -19.032875,17.12529 -24.116163,24.04169 -3.921802,5.33606 -4.162392,5.46702 -10.076227,5.48469 -2.81875,0.008 -6.553666,0.30104 -8.299813,0.65027 -3.635311,0.72706 -3.630603,1.30341 0.110528,13.53057 l 2.039446,6.66553 -2.505003,5.33447 C 61.787793,258.79865 59.028433,271.63478 58.297136,290 c -0.892639,22.41703 3.224752,42.86355 12.591568,62.52835 6.561581,13.77546 12.957171,23.15119 23.044773,33.78289 C 119.20293,412.94365 149.37573,426 185.65295,426 c 32.52,0 58.58861,-9.7257 83.29599,-31.07615 L 276.96144,388 h 10.46026 c 5.75315,0 10.70123,0.38989 10.99575,0.86643 1.49734,2.42274 -19.34359,22.54327 -32.91745,31.77961 -25.77675,17.53979 -62.0096,26.51603 -94,23.28733 z M 405.22327,397.25 405.5,382.5 l 8.05748,0.009 C 423.89492,382.5203 427,384.22776 427,389.90076 c 0,2.19671 -0.64156,4.38695 -1.49168,5.09248 -1.29969,1.07865 -1.17098,1.6191 1,4.19917 2.77799,3.30145 2.99835,4.60161 1.38141,8.15042 -1.63068,3.5788 -4.9796,4.65717 -14.46352,4.65717 h -8.47968 z m 15.44128,10.68744 C 425.32206,406.16665 426.0385,404.0385 423,401 c -1.55556,-1.55556 -3.33333,-2 -8,-2 h -6 v 4.33333 c 0,2.38334 0.3,4.63334 0.66667,5 1.03328,1.03329 7.88785,0.78654 10.99788,-0.39589 z M 421.8,393.8 c 0.66,-0.66 1.2,-2.24614 1.2,-3.52475 C 423,387.44778 419.76084,386 413.4349,386 H 409 v 4.5 4.5 h 5.8 c 3.19,0 6.34,-0.54 7,-1.2 z M 435,397 c 0,-13.8871 0.14552,-15.11862 1.75,-14.80963 1.57053,0.30246 1.75,1.82125 1.75,14.80963 0,12.98838 -0.17947,14.50717 -1.75,14.80963 C 435.14552,412.11862 435,410.8871 435,397 Z m 16.2835,12.33059 C 446.25856,406.07237 445,403.50727 445,396.52415 c 0,-4.70213 0.41189,-5.81848 3.26169,-8.84014 6.33627,-6.7184 16.35195,-6.77306 22.79609,-0.1244 2.66302,2.74754 3.35131,4.35978 3.69636,8.6583 0.34809,4.33641 0.002,5.90871 -1.935,8.78209 -4.8457,7.18945 -14.21955,9.07443 -21.53564,4.33059 z m 15.50564,-3.43098 c 2.95803,-1.84732 4.58078,-6.23265 3.88741,-10.50536 -0.71724,-4.41985 -2.23117,-6.30889 -6.47923,-8.08458 -6.74607,-2.81988 -14.66573,1.57865 -15.81625,8.78423 -0.40749,2.55203 0.0494,4.28371 1.82216,6.9061 3.81554,5.64422 10.35926,6.78822 16.58591,2.89961 z M 476,411.15364 c 0,-0.4655 0.63184,-2.153 1.40409,-3.75 0.77224,-1.597 2.29949,-4.92864 3.39388,-7.40364 7.47163,-16.89738 8.1679,-18.15322 9.88152,-17.82321 1.14709,0.22091 3.85609,5.06902 8.00643,14.32854 3.45001,7.69707 6.28205,14.33217 6.29342,14.74467 0.0114,0.4125 -0.85021,0.75 -1.91461,0.75 -1.30401,0 -2.34811,-1.14167 -3.20089,-3.5 L 498.59822,405 H 490.5 482.40178 l -1.26562,3.5 c -0.85278,2.35833 -1.89688,3.5 -3.20089,3.5 C 476.87087,412 476,411.61914 476,411.15364 Z m 20,-10.58773 c 0,-0.23874 -1.20485,-3.21223 -2.67744,-6.60775 l -2.67744,-6.17366 -2.19395,4.35775 c -1.20668,2.39676 -2.50715,5.37025 -2.88995,6.60775 -0.66421,2.14725 -0.44175,2.25 4.87139,2.25 3.06207,0 5.56739,-0.19534 5.56739,-0.43409 z m 19,10.14082 c -4.16571,-1.92941 -7.88812,-6.8813 -8.57484,-11.40705 -0.81627,-5.37948 1.74397,-10.8794 6.57484,-14.12409 2.96408,-1.99084 4.45891,-2.29173 9.76247,-1.96501 4.14205,0.25517 6.83628,0.9596 7.95715,2.08046 2.61994,2.61995 0.36421,4.15464 -3.29889,2.24439 -10.58257,-5.51863 -22.41083,6.85097 -15.25283,15.95089 3.3305,4.23404 8.02874,5.83466 12.86935,4.38437 C 528.94513,406.69986 529,406.61639 529,401.84171 529,397.66667 529.27538,397 531,397 c 1.75822,0 2,0.66667 2,5.5147 0,5.14857 -0.21577,5.64626 -3.25,7.49626 -3.64199,2.22057 -10.73544,2.55517 -14.75,0.69577 z m 25.22327,-13.38765 0.27673,-14.68092 5.14483,-0.38595 c 11.36089,-0.85224 16.90322,2.77774 16.77926,10.98969 -0.0645,4.2728 -0.48418,5.32644 -2.79086,7.00674 -2.9823,2.17245 -3.17632,1.26674 1.98178,9.25136 1.56217,2.41821 1.53763,2.49897 -0.75,2.46839 -1.71288,-0.0229 -3.11269,-1.26372 -5.07653,-4.5 C 553.21766,403.23188 552.84144,403 548.53848,403 H 544 v 4.5 c 0,3.85312 -0.29135,4.5 -2.02673,4.5 -1.95618,0 -2.0171,-0.51109 -1.75,-14.68092 z m 16.94799,0.0259 c 1.86263,-1.68565 2.40805,-5.88578 1.04308,-8.03245 C 557.07632,387.52282 552.35074,386 547.9349,386 H 544 v 6.5 6.5 h 5.67126 c 3.87384,0 6.25085,-0.52452 7.5,-1.65499 z m 18.17184,13.10854 c -6.79749,-2.97856 -10.12902,-12.71828 -6.64738,-19.43362 5.42288,-10.45958 21.01172,-10.90332 27.36909,-0.77907 2.53525,4.03744 2.1731,11.60001 -0.74626,15.58363 -4.13506,5.64252 -12.98319,7.69296 -19.97545,4.62906 z m 15.45238,-5.79448 c 5.42228,-5.42228 3.03165,-15.2409 -4.29998,-17.66056 -3.06789,-1.01249 -4.37678,-0.93366 -8.09869,0.48775 -7.43624,2.83992 -9.71237,10.6084 -4.8139,16.42991 4.55346,5.41147 12.21339,5.74207 17.21257,0.7429 z m -465.24122,1.61391 c -4.44165,-1.13001 -9.766,-5.52565 -11.60828,-9.58349 -5.35657,-11.79844 -0.66466,-29.67013 15.14538,-57.68949 14.80215,-26.23313 20.20261,-40.0911 20.32864,-52.16473 0.0677,-6.48574 -0.2707,-8.1393 -2.19994,-10.75 -2.47506,-3.34932 -1.65061,-3.88451 2.5796,-1.67455 3.6257,1.89416 7.83374,6.45575 9.13672,9.90438 1.6573,4.3864 1.24252,13.54896 -0.93638,20.6849 -1.0916,3.575 -1.98816,6.8375 -1.99236,7.25 C 156.00344,312.6625 165,313 176,313 c 13.08159,0 20,-0.35703 20,-1.03212 0,-0.56766 -0.675,-2.64762 -1.5,-4.62212 -0.825,-1.97451 -1.5,-3.98505 -1.5,-4.46788 C 193,302.39504 195.66767,302 198.92815,302 h 5.92815 l 2.07644,5.54979 c 2.30063,6.14896 6.48298,14.58775 12.11781,24.45021 6.76559,11.84162 15.0696,29.0035 17.56579,36.30322 1.35355,3.95823 2.7334,10.65976 3.06634,14.89228 0.5482,6.96901 0.35628,8.20458 -2.03293,13.08795 -2.12751,4.34848 -3.62045,5.92702 -7.71153,8.15366 -5.60628,3.05132 -7.37875,2.76201 -4.23379,-0.69105 1.1251,-1.23533 2.55188,-3.22898 3.17061,-4.43032 1.36374,-2.64788 1.46178,-12.2343 0.1464,-14.31574 -0.82307,-1.30242 -7.9011,-1.5 -53.73469,-1.5 H 122.5 l -0.29127,7.12423 c -0.25364,6.20375 0.008,7.49578 2.02371,10 5.58899,6.94288 5.53711,6.72117 1.32182,5.64875 z m 99.08923,-36.55729 c -0.31533,-1.25638 -1.9214,-5.25742 -3.56904,-8.89121 -2.84816,-6.2815 -3.18234,-6.62457 -6.78508,-6.96569 -2.08415,-0.1973 -21.09865,-0.13376 -42.25443,0.14124 l -38.46505,0.5 -3.28414,7.8468 c -1.80628,4.31573 -3.03294,8.25323 -2.72593,8.75 0.31986,0.51753 21.28871,0.9032 49.10761,0.9032 h 48.54939 l -0.57333,-2.28431 z M 212,342.39936 c 0,-1.32058 -7.21332,-13.33749 -9.46336,-15.76532 -2.81813,-3.04082 -3.35649,-3.07156 -34.6439,-1.97807 l -18.60725,0.65032 -4.14275,7.88656 c -2.2785,4.33761 -4.14274,8.26668 -4.14274,8.73128 0,0.4646 15.975,0.89083 35.5,0.94718 19.525,0.0563 35.5,-0.15603 35.5,-0.47195 z M 289.25,377.25092 266,376.96314 V 345.48157 314 h 10.5 10.5 v 23 23 h 13 13 v 9 c 0,4.95 -0.1125,8.89621 -0.25,8.76935 -0.1375,-0.12686 -10.7125,-0.36015 -23.5,-0.51843 z m 46.82006,-1.21158 C 328.643,373.28045 322.11505,367.4963 318.5,360.47125 c -2.65424,-5.15793 -2.99767,-6.81764 -2.97981,-14.40054 0.0257,-10.89259 2.61968,-17.21296 9.66398,-23.54639 7.00656,-6.2995 14.25658,-8.91913 24.81583,-8.96664 9.54334,-0.0429 15.88642,1.71607 23.42255,6.49534 l 4.71254,2.9886 -3.04532,3.72919 c -1.67493,2.05106 -4.32146,5.24098 -5.88118,7.08872 l -2.83586,3.35954 -5.93637,-3.19298 c -4.85131,-2.60937 -6.77677,-3.11584 -10.53427,-2.77094 -5.4038,0.49601 -9.12396,2.97023 -11.32005,7.52878 -2.90478,6.02961 -1.42989,14.42473 3.26981,18.61189 2.54693,2.26916 10.51218,3.21887 14.39815,1.71672 2.63813,-1.0198 2.75,-1.3488 2.75,-8.08779 V 344 h 9 9 v 12.97695 c 0,12.44338 -0.0947,13.039 -2.30349,14.48625 -8.9375,5.85607 -28.83494,8.21336 -38.62645,4.57614 z M 406.5,377.32791 c -20.37164,-4.48267 -31.13095,-27.08163 -21.92065,-46.04235 8.12548,-16.72746 31.6204,-22.99274 51.0831,-13.62208 9.04615,4.35543 9.16523,4.90452 2.74183,12.64318 -5.40417,6.51072 -7.56634,7.85818 -8.96863,5.58921 -1.13129,-1.83046 -8.7126,-4.85046 -12.23531,-4.87391 -9.84784,-0.0655 -16.40697,10.23485 -13.01681,20.44148 2.32126,6.98853 10.66552,10.44545 18.25137,7.56131 2.41748,-0.91912 2.5651,-1.37952 2.5651,-8 L 425,344 h 9 9 v 13.36344 13.36343 l -5.75,2.53749 c -9.30744,4.10739 -22.57994,5.86132 -30.75,4.06355 z M 450.77751,345.50052 451.05502,314 H 461.52751 472 v 31.5 31.5 l -10.75,5.2e-4 -10.75,5.2e-4 z M 480,345.5 V 314 h 17.8185 c 20.93645,0 26.09283,1.09124 32.07559,6.78814 9.94861,9.47325 7.46079,29.8173 -4.50371,36.82897 -3.80234,2.22832 -6.11505,2.75179 -13.97343,3.16284 L 502,361.27252 V 369.13626 377 h -11 -11 z m 33.42707,-2.06993 c 2.25579,-2.25579 3.00257,-6.1917 1.71214,-9.02389 C 513.85527,331.58825 510.35725,330 505.4349,330 H 502 v 7.5 7.5 h 4.92857 c 3.14519,0 5.49665,-0.56807 6.4985,-1.56993 z M 542,345.40957 v -31.59043 l 19.75,0.34043 19.75,0.34043 5.45543,3 c 7.31152,4.02068 10.466,9.88193 10.43425,19.38758 -0.0524,15.6818 -9.22588,23.9699 -26.63968,24.06853 L 563,361 v 8 8 H 552.5 542 Z M 575,343 c 2.32503,-2.32503 2.65879,-7.7168 0.64791,-10.46684 -0.98943,-1.35313 -2.86701,-1.91851 -7,-2.10788 L 563,330.1665 V 337.58325 345 h 5 c 3.66667,0 5.53333,-0.53333 7,-2 z M 278.03256,305.53466 c -2.0014,-2.1304 -2.24395,-3.18333 -1.78523,-7.75 0.76871,-7.65275 -0.14041,-10.00255 -4.27937,-11.06089 C 266.75242,285.39014 264,282.3415 264,277.89827 c 0,-6.94218 7.75808,-10.2362 13.48977,-5.72766 2.59935,2.04465 2.72461,2.50419 2.15865,7.91903 -0.33046,3.16164 -0.13695,7.07911 0.43001,8.7055 0.89814,2.57642 1.63526,3.02765 5.72621,3.50533 3.24101,0.37843 5.40893,0.089 6.9991,-0.93438 2.37279,-1.52706 2.61296,-1.96359 3.62484,-6.58841 1.84145,-8.41637 14.2324,-9.15067 16.03354,-0.95016 1.47322,6.70754 -4.83516,12.33281 -11.30225,10.07837 -4.19491,-1.46236 -7.70834,0.92423 -8.49474,5.77027 -1.27885,7.88062 -9.60221,11.21307 -14.63257,5.8585 z m -80.69875,-10.50621 c -7.99921,-1.22257 -15.36768,-3.8341 -23.96169,-8.49251 -6.78624,-3.6785 -8.04746,-4.7882 -9.14324,-8.04478 -3.37176,-10.02062 6.40919,-27.63347 27.74456,-49.9605 8.85672,-9.26837 8.47682,-9.72295 -1.47344,-1.76312 -5.52651,4.421 -17.64857,16.68558 -20.98572,21.23246 -5.16353,7.03534 -9.24473,15.88346 -10.72488,23.25175 l -1.35629,6.75174 -2.81623,-7.23862 c -8.34692,-21.45432 -6.85614,-42.96305 4.27662,-61.70227 22.31075,-37.55455 81.92115,-57.50773 139.35867,-46.64704 3.72814,0.70494 7.10492,1.60819 7.50395,2.00722 1.11316,1.11317 -5.19268,24.18441 -9.7735,35.75836 -10.64172,26.88749 -31.83747,60.40851 -47.85825,75.68765 -15.40153,14.68857 -34.04039,21.71968 -50.79056,19.15966 z M 203,218.5 c 0,-0.275 -0.225,-0.5 -0.5,-0.5 -0.275,0 -0.5,0.225 -0.5,0.5 0,0.275 0.225,0.5 0.5,0.5 0.275,0 0.5,-0.225 0.5,-0.5 z m 135.5,74.36778 c -5.18809,-2.58591 -8.11175,-12.4806 -5.27328,-17.84661 1.7571,-3.32171 8.58823,-7.16209 11.9691,-6.72889 2.45219,0.31421 2.88365,-0.15784 4.77426,-5.22343 l 2.07845,-5.56885 -2.02427,-3.96144 C 348.91092,251.35977 348,248.57656 348,247.35366 c 0,-6.01715 5.21645,-12.04482 11.26016,-13.01125 3.29542,-0.52696 4.20056,-1.20083 5.36892,-3.99709 1.2421,-2.97278 1.21375,-3.65556 -0.24421,-5.88069 -1.1936,-1.82166 -1.48526,-3.71556 -1.05529,-6.85252 0.50536,-3.687 0.24564,-4.66255 -1.73727,-6.52539 -1.68537,-1.58332 -3.03056,-2.01483 -4.85418,-1.55713 -2.9775,0.74731 -8.2028,-1.66079 -9.70849,-4.4742 C 346.46334,203.99724 346,201.5269 346,199.56574 c 0,-8.06708 10.24939,-11.45195 16.05941,-5.30363 1.70853,1.80801 2.0308,3.14391 1.67767,6.95449 -0.37047,3.99779 -0.074,5.05772 1.94539,6.95482 1.57507,1.47971 3.71913,2.27175 6.32668,2.33717 4.0706,0.10213 8.99085,3.47632 8.99085,6.16572 0,0.87869 1.34096,1.32569 3.97695,1.32569 3.09388,0 4.32595,-0.53266 5.54875,-2.39887 3.47676,-5.30622 10.58923,-5.7382 15.05953,-0.91466 3.38765,3.65534 3.2043,8.25682 -0.48644,12.20777 -4.20167,4.49791 -9.18529,4.35411 -13.66356,-0.39424 -4.30868,-4.56853 -8.35965,-4.72942 -12.58908,-0.5 -1.86392,1.86393 -4.03086,3 -5.72218,3 -2.20037,0 -2.96342,0.6671 -3.9806,3.48007 -1.1393,3.15067 -1.05457,3.69493 0.89514,5.75 2.54244,2.67983 3.96149,5.99327 3.96149,9.24996 0,1.62444 1.55399,3.58714 5.034,6.35796 4.78648,3.81106 5.16753,3.93843 7.75,2.59048 4.49899,-2.34831 8.62856,-2.70076 12.53245,-1.06961 7.04357,2.94299 9.94628,12.65469 5.60471,18.75186 -7.21286,10.12953 -21.84999,6.27091 -23.07642,-6.08338 -0.24564,-2.47443 -1.35066,-4.34287 -3.84418,-6.5 -1.92469,-1.66504 -4.09433,-3.58984 -4.82143,-4.27734 -1.76044,-1.66458 -3.16186,-1.57561 -5.27277,0.33475 -0.96312,0.87161 -3.57535,1.82942 -5.80497,2.12848 -3.86494,0.51839 -4.15156,0.80493 -6.15118,6.14938 -1.95892,5.23568 -1.99348,5.82343 -0.52377,8.90545 0.86546,1.81488 1.57356,5.13747 1.57356,7.38351 0,3.41039 -0.64014,4.72386 -3.88235,7.96608 -3.36305,3.36305 -4.46657,3.8733 -8.25,3.81467 C 342.46544,293.8951 339.6,293.41605 338.5,292.86778 Z M 121.61774,282.88513 C 107.05707,279.4765 86.910521,260.22749 76.763435,240.0291 74.693546,235.90886 73,231.12564 73,229.39972 c 0,-2.84931 0.345025,-3.19506 3.75,-3.75787 2.0625,-0.34091 7.486168,-0.62479 12.052595,-0.63084 22.799225,-0.0302 44.772735,11.28593 51.915525,26.73602 2.95959,6.40169 3.89066,14.31526 2.35344,20.00297 -1.15232,4.26357 -3.07156,5.80537 -3.07156,2.46751 0,-2.69211 -8.03307,-14.22401 -11.94326,-17.14517 -3.28188,-2.45178 -3.22271,-2.3003 1.2625,3.23192 8.27146,10.20233 10.54831,15.2062 8.58678,18.87134 -1.80187,3.36684 -9.88677,5.20811 -16.28828,3.70953 z m 171.40374,-13.36226 c -4.54616,-4.83917 -1.93571,-12.88553 4.57677,-14.10728 2.88236,-0.54073 3.90178,-1.36808 5.03885,-4.08948 1.26743,-3.03338 1.24014,-3.72535 -0.24619,-6.2415 C 299.26745,239.79702 303.14083,233 309.27749,233 c 4.48325,0 7.47155,2.35428 8.67872,6.83739 1.29548,4.81103 6.15849,8.70678 8.98216,7.19559 3.43325,-1.83741 7.62991,-1.19198 10.42527,1.60338 4.38372,4.38373 2.86281,11.47374 -2.86693,13.36473 -5.4216,1.78928 -11.40489,-2.08161 -11.55204,-7.4736 -0.0304,-1.11512 -1.40774,-3.09683 -3.06068,-4.4038 -2.90832,-2.29959 -3.15664,-2.32803 -7.69145,-0.88072 -3.89391,1.24276 -4.8421,2.03951 -5.60885,4.71303 -0.62281,2.17159 -0.53671,4.28502 0.26488,6.50177 3.13855,8.67951 -7.58475,15.70976 -13.82709,9.0651 z m 77.61338,-73.59545 C 368.50903,194.25524 368,193.01353 368,189.5 c 0,-3.51353 0.50903,-4.75524 2.63486,-6.42742 1.44917,-1.13992 3.71031,-2.07258 5.02475,-2.07258 3.47555,0 4.87536,-4.15183 3.39377,-10.06592 -1.43522,-5.72899 -0.15573,-9.56352 3.67869,-11.02477 5.52311,-2.1048 12.15374,1.53822 12.23466,6.722 0.0193,1.23371 1.50219,3.25171 3.52117,4.79166 2.78927,2.12748 3.87775,2.45171 5.43426,1.61869 2.64616,-1.41619 7.20913,-1.25818 9.28853,0.32164 4.21163,3.19979 4.25735,10.6287 0.0822,13.36433 -5.4749,3.58732 -13.29289,0.1374 -13.29289,-5.86589 0,-2.09077 -0.91523,-3.41155 -3.65328,-5.27211 -3.3799,-2.2967 -3.86258,-2.37423 -6.45034,-1.03605 C 388.358,175.34911 386.47747,176 385.71744,176 c -1.90392,0 -3.89977,6.79079 -2.67078,9.08719 4.41855,8.25613 -5.1134,16.58115 -12.4118,10.84023 z"
           id="path843" />
        <path
           style="fill:#f67d36"
           d="M 305,622.40874 C 255.61985,619.76345 207.12847,605.02671 165,579.86215 111.59037,547.95902 68.509161,500.17224 43.41776,445 24.010471,402.32628 15.853894,364.70653 15.773671,317.5 15.731253,292.53937 17.006459,278.14217 21.08806,257.5 40.341133,160.13009 106.78938,77.411265 198.37212,36.80599 261.96307,8.6115078 337.59435,3.5951711 405.55441,23.064372 c 33.33341,9.549359 65.31351,25.016691 93.14681,45.05092 12.76885,9.190931 13.44573,9.737133 27.24032,21.981175 39.32997,34.909183 69.98937,82.287093 86.3287,133.403533 10.88003,34.03741 14.09655,55.30174 14.14316,93.5 0.0315,25.8333 -0.19346,28.78903 -4.00635,52.63483 -6.20114,38.78185 -23.64297,82.44809 -46.66665,116.83161 -20.28954,30.30038 -50.31031,60.99352 -79.58128,81.36367 -35.44047,24.6636 -76.72037,41.89481 -120.15912,50.15727 -17.13761,3.25974 -52.07314,5.43527 -71,4.42136 z m 42,-13.88349 c 30.67603,-2.90253 55.71153,-8.76872 82,-19.21382 C 486.40519,566.50285 535.58117,525.83856 568.448,474 c 11.84053,-18.67524 23.45776,-42.85932 30.0429,-62.54156 19.21672,-57.43667 20.55928,-119.23552 3.84438,-176.95844 -7.81177,-26.97699 -22.26496,-57.64434 -38.64571,-82 -7.86295,-11.691 -23.30443,-30.15892 -35.16779,-42.0605 C 487.15114,68.935597 436.78848,41.796836 379.44102,30.104838 282.9393,10.430068 184.57928,39.996206 114.41377,109.76965 69.761009,154.1729 40.821332,211.22285 31.523528,273.17452 c -0.798582,5.32098 -2.007433,17.57786 -2.686337,27.23751 -3.483476,49.56394 8.135996,105.09039 31.231126,149.24548 3.40679,6.51337 6.860858,13.11566 7.675708,14.67176 2.464604,4.70658 18.221065,27.82949 22.60327,33.17073 22.265255,27.13794 43.395565,46.56973 69.215865,63.65211 55.74097,36.8775 121.82946,53.58082 187.43684,47.37314 z M 166.96167,442.61175 c -4.69607,-0.72431 -10.26859,-1.88797 -12.38337,-2.58591 -2.11477,-0.69794 -6.37252,-1.83237 -9.46167,-2.52095 C 128.06397,433.70376 105.83477,421.0571 89.435782,405.8269 78.658296,395.81755 68,383.57967 68,381.21428 c 0,-0.53316 -0.721879,-1.5685 -1.604176,-2.30074 -0.882296,-0.73224 -2.013977,-2.24984 -2.514847,-3.37244 -0.500869,-1.12261 -1.777908,-3.3911 -2.837864,-5.0411 -2.795738,-4.35204 -6.597035,-12.31777 -8.351115,-17.5 -0.837736,-2.475 -2.233374,-5.85 -3.101417,-7.5 -0.868043,-1.65 -1.581032,-4.01861 -1.58442,-5.26357 -0.0034,-1.24496 -0.408499,-3.04496 -0.900245,-4 -0.491746,-0.95504 -1.916085,-5.95547 -3.165198,-11.11206 -1.941036,-8.01301 -2.267051,-12.00979 -2.243155,-27.5 0.02004,-12.98824 0.501737,-20.39143 1.699824,-26.12437 0.919525,-4.4 1.911946,-9.35 2.20538,-11 0.293434,-1.65 0.915292,-3.9 1.381907,-5 0.466616,-1.1 1.073807,-2.9 1.349315,-4 1.033584,-4.12672 5.529155,-15.33453 8.051049,-20.07189 C 57.823267,228.7264 59,225.94983 59,225.25796 59,224.56608 59.347668,224 59.772596,224 c 0.424928,0 1.646582,-1.6875 2.714787,-3.75 1.068205,-2.0625 2.530765,-4.425 3.250134,-5.25 0.719368,-0.825 3.08605,-4.1867 5.259293,-7.47045 7.069103,-10.68134 22.270277,-25.15127 35.40207,-33.69907 2.25562,-1.46823 4.55112,-3.0462 5.10112,-3.5066 0.55,-0.46039 4.15,-2.38328 8,-4.27309 3.85,-1.8898 7.675,-3.96558 8.5,-4.61283 0.825,-0.64725 2.625,-1.42457 4,-1.72737 1.375,-0.3028 5.2,-1.46637 8.5,-2.5857 19.31204,-6.55052 36.72676,-8.92552 53.70578,-7.32435 12.61317,1.18947 15.24582,2.46985 8.67142,4.21734 -2.40746,0.63991 -6.55167,2.24767 -9.20936,3.5728 -2.65769,1.32512 -5.43372,2.40932 -6.16896,2.40932 -0.73524,0 -2.61077,0.61997 -4.16784,1.37772 -7.9905,3.88856 -10.5426,4.70726 -18.83104,6.04092 -12.81959,2.06275 -22.23773,4.40299 -26.40046,6.56006 -1.97975,1.02588 -5.62454,2.68178 -8.09954,3.67979 -2.475,0.99801 -6.3,2.9866 -8.5,4.41909 -2.2,1.43249 -6.7,4.3471 -10,6.47691 -6.57378,4.24269 -19.733314,17.03653 -25.955486,25.23419 -3.159797,4.16301 -4.567923,5.23587 -7,5.33336 -2.84523,0.11405 -4.678331,0.22052 -11.905805,0.6915 -2.740463,0.17859 -2.832509,0.34482 -2.179713,3.93646 0.374868,2.0625 1.604954,6.82429 2.733524,10.58175 l 2.051946,6.83176 -2.622233,5.35529 C 65.180005,249.46422 64,252.48743 64,253.23705 c 0,0.74962 -0.401838,1.79045 -0.892973,2.31295 -1.019431,1.08453 -3.577686,12.29349 -4.667367,20.45 -1.480558,11.08232 -0.668134,35.87965 1.539841,47 2.236898,11.26602 2.957839,13.63522 6.610097,21.72254 1.297183,2.8724 2.655628,6.4724 3.018767,8 0.363139,1.5276 1.209735,3.45246 1.881324,4.27746 0.671589,0.825 2.265915,3.6375 3.542946,6.25 1.277032,2.6125 2.619879,4.75 2.984105,4.75 0.364227,0 1.218133,1.22007 1.897569,2.71127 3.485225,7.64924 28.209811,32.02718 36.835181,36.31875 1.51278,0.75268 4.10051,2.31741 5.75051,3.47717 1.65,1.15976 4.8,2.8812 7,3.82542 2.2,0.94422 5.575,2.55372 7.5,3.57666 1.925,1.02294 7.325,2.83831 12,4.03414 4.675,1.19584 10.525,2.71027 13,3.36542 7.09398,1.87781 41.94432,1.53173 50,-0.49652 15.22721,-3.83391 19.63313,-5.23788 21.88486,-6.97378 1.31167,-1.01119 3.13576,-1.83853 4.05353,-1.83853 1.65423,0 21.17907,-11.05226 24.06161,-13.62035 0.825,-0.73501 4.81762,-4.04611 8.87249,-7.35801 L 278.24499,389 h 8.27052 c 9.68159,0 11.12298,1.27879 6.71459,5.95712 -1.50156,1.5935 -4.24592,4.5228 -6.09858,6.50955 -1.85266,1.98676 -5.00266,4.82078 -7,6.29782 -1.99734,1.47705 -4.87293,3.93428 -6.39022,5.46052 -1.51728,1.52625 -3.13907,2.77499 -3.60398,2.77499 -0.4649,0 -2.00434,1.0125 -3.42099,2.25 -3.46769,3.02919 -10.6424,7.34213 -13.71633,8.24532 -1.375,0.404 -3.4,1.53111 -4.5,2.50468 -1.1,0.97357 -3.125,2.07513 -4.5,2.44792 -1.375,0.37278 -3.4,1.07225 -4.5,1.55437 -1.1,0.48213 -4.925,1.87666 -8.5,3.09896 -3.575,1.2223 -6.9275,2.59955 -7.45,3.06056 -0.5225,0.461 -1.96304,0.83819 -3.20121,0.83819 -1.23817,0 -4.86067,0.68576 -8.05,1.52392 -8.12041,2.13403 -34.45695,2.76596 -45.33712,1.08783 z M 406,397.5 V 383 h 8.04545 c 7.30391,0 8.28199,0.23654 10.61175,2.56629 2.07556,2.07557 2.44673,3.17507 1.94107,5.75 -0.34387,1.75104 -1.249,3.65031 -2.01142,4.22059 -1.13682,0.85035 -0.94342,1.43129 1.07508,3.22921 1.94572,1.7331 2.39601,2.98218 2.14967,5.96312 -0.42786,5.17773 -4.61326,7.2671 -14.5616,7.26924 L 406,412 Z m 16,10.21023 c 3.10305,-1.5643 3.86859,-5.60193 1.40384,-7.4042 C 422.38095,399.55807 418.92192,399 415.30887,399 H 409 v 5 5 l 5.25,-0.0147 c 2.8875,-0.008 6.375,-0.58187 7.75,-1.27503 z M 422,394 c 2.26853,-2.26853 2.43543,-3.31787 0.96482,-6.06574 C 422.10524,386.32813 420.83293,386 415.46482,386 H 409 v 5 5 h 5.5 c 4.16667,0 5.98485,-0.48485 7.5,-2 z m 13,3.5 c 0,-12.22222 0.23563,-14.5 1.5,-14.5 1.26437,0 1.5,2.27778 1.5,14.5 0,12.22222 -0.23563,14.5 -1.5,14.5 -1.26437,0 -1.5,-2.27778 -1.5,-14.5 z m 18,12.7091 C 439.55334,402.86215 444.33415,383 459.54921,383 c 8.47932,0 14.76212,5.94559 14.88109,14.08239 0.15714,10.74792 -12.07306,18.23929 -21.4303,13.12671 z m 13.78125,-3.80143 c 3.16435,-2.07336 5.35132,-7.49482 4.57969,-11.35296 -0.34004,-1.70019 -2.13447,-4.40471 -4.02223,-6.06218 -11.06621,-9.71626 -26.18403,5.88942 -15.78208,16.29137 3.98259,3.98259 10.16504,4.43894 15.22462,1.12377 z M 477,410.64301 c 0,-0.74634 2.63576,-7.15884 5.85725,-14.25 4.40286,-9.69159 6.31154,-12.89301 7.68679,-12.89301 1.36179,0 3.17402,2.9401 7.08839,11.5 7.16322,15.66444 7.61883,17 5.79937,17 -0.80529,0 -2.21522,-1.575 -3.13319,-3.5 L 498.62958,405 H 490.5 482.37042 l -1.66903,3.5 C 479.02759,412.01 477,413.18392 477,410.64301 Z m 19,-10.0771 c 0,-2.51141 -5.27198,-13.69549 -6.06397,-12.86424 -1.34209,1.40861 -5.76088,13.14014 -5.17139,13.72963 0.31278,0.31279 2.96869,0.5687 5.90203,0.5687 3.96512,0 5.33333,-0.3679 5.33333,-1.43409 z m 19.5,10.02245 c -6.53413,-2.90412 -10.55559,-10.85986 -8.55444,-16.92341 2.89018,-8.75732 13.19505,-13.06472 21.65331,-9.05101 4.12173,1.95589 4.56158,3.91971 0.65113,2.90712 -1.5125,-0.39165 -4.88897,-0.93764 -7.50327,-1.21331 -4.39819,-0.46378 -5.01447,-0.24001 -8.25,2.99552 -2.71818,2.71818 -3.49673,4.30933 -3.49673,7.14639 0,8.03248 6.27936,13.46784 13.91166,12.04182 C 528.88832,407.56163 530,406.35398 530,401.87756 530,399.7449 530.45,398 531,398 c 0.55,0 1,2.42614 1,5.39142 0,5.3611 -0.0226,5.40047 -4.02024,7 -4.82649,1.93118 -8.44917,1.98835 -12.47976,0.19694 z m 25.16667,0.74497 C 540.3,410.96667 540,404.44167 540,396.83333 V 383 h 7.56574 c 10.9954,0 14.34681,2.27938 14.40246,9.79545 0.0242,3.27513 -0.56204,4.8893 -2.4682,6.79546 -3.12536,3.12536 -3.11471,3.73661 0.13945,8.00303 1.4517,1.90327 2.4161,3.68384 2.14313,3.95682 -1.08338,1.08338 -3.45849,-0.7903 -5.79587,-4.57226 C 553.62414,403.15578 553.32176,403 548.26393,403 H 543 v 4.5 c 0,4.19939 -0.74438,5.42229 -2.33333,3.83333 z m 15.46616,-12.96506 c 3.11877,-1.5381 4.38299,-5.52159 2.74167,-8.63879 -1.73787,-3.30056 -2.7661,-3.69736 -9.6245,-3.71417 L 543,386 v 6.33333 c 0,3.48334 0.32767,6.66101 0.72816,7.0615 1.11942,1.11942 9.45145,0.42989 12.40467,-1.02656 z m 22.03713,12.91551 c -1.28152,-0.24412 -4.09402,-2.20784 -6.25,-4.36382 C 568.3857,403.3857 568,402.49861 568,397.90429 c 0,-6.33815 2.29507,-10.47601 7.21016,-12.99946 4.77945,-2.45381 9.86408,-2.41776 14.80907,0.10498 4.86427,2.48157 6.98077,6.38174 6.98077,12.8638 0,9.57856 -8.21859,15.43158 -18.83004,13.41017 z m 11.62467,-4.91006 C 592.54625,404.60099 594,401.13068 594,396.3349 c 0,-2.7113 -0.82126,-4.35616 -3.52484,-7.05974 -3.31997,-3.31997 -3.82509,-3.49599 -8.69061,-3.02848 C 574.87908,386.91021 571,390.92373 571,397.40499 c 0,9.40654 10.40678,14.37262 18.79463,8.96873 z M 122.5,404.58836 c -6.32101,-2.8094 -10.5,-10.1198 -10.5,-18.3679 0,-11.27818 5.56829,-25.89133 19.2488,-50.51564 10.80777,-19.45349 11.27156,-20.40385 14.74049,-30.20482 4.33233,-12.24043 5.12703,-22.7457 2.15238,-28.4527 l -2.13437,-4.09489 2.80714,1.45163 c 4.3556,2.25237 9.09979,7.62802 10.18753,11.54351 1.48456,5.34394 1.21893,9.50583 -1.16096,18.18983 -1.18744,4.33289 -1.94243,8.09453 -1.67776,8.35921 0.26468,0.26467 4.09962,0.53409 8.52209,0.59869 4.42248,0.0646 8.61103,0.46985 9.30789,0.90053 0.89944,0.55589 1.06644,2.12064 0.57562,5.39363 L 173.87745,324 h -12.1949 -12.1949 l -4.49383,8.66136 c -2.4716,4.76375 -4.64382,9.03875 -4.82715,9.5 -0.18334,0.46125 7.57916,0.83864 17.25,0.83864 H 175 v 4.97971 4.97971 l -20.63535,0.27029 -20.63536,0.27029 -3.80326,8.5 c -2.09179,4.675 -3.83088,8.8375 -3.86464,9.25 -0.0338,0.4125 10.76213,0.75 23.99087,0.75 h 24.05226 l -0.30226,5.25 -0.30226,5.25 -25.75,0.26688 -25.75,0.26688 -0.18289,4.73312 c -0.32308,8.36126 0.19489,10.6581 3.26613,14.48312 3.17356,3.95246 2.47373,4.58595 -2.58324,2.33836 z m 216.31076,-28.05867 c -6.05095,-1.6665 -10.74154,-4.60379 -15.15755,-9.49179 -4.62731,-5.12188 -6.25044,-8.39436 -7.46869,-15.05807 -2.69614,-14.74761 4.27749,-28.5579 17.56496,-34.78492 5.1526,-2.4147 6.89426,-2.69491 16.75052,-2.69491 9.99532,0 11.56601,0.26148 17.19713,2.86284 3.40842,1.57456 6.9579,3.70348 7.88775,4.73095 1.78675,1.97434 2.08371,1.48489 -8.62696,14.21911 -0.37605,0.4471 -2.36568,-0.3285 -4.4214,-1.72355 -4.40345,-2.98827 -9.11654,-4.04315 -14.71144,-3.29271 -11.05769,1.48314 -15.13596,16.62871 -6.79491,25.23448 3.73294,3.85143 8.3147,4.99165 13.95501,3.47287 L 359,358.92291 V 351.46146 344 h 8.42385 8.42386 l 0.32614,7.75 c 0.17938,4.2625 0.19258,10.29115 0.0293,13.397 l -0.29683,5.647 -4.87094,2.09543 c -11.17336,4.80665 -23.09834,6.15376 -32.22464,3.64026 z m 66.13456,0.0198 c -9.27132,-3.41562 -16.43727,-8.99466 -19.92596,-15.51333 -4.06355,-7.59282 -4.09956,-22.03833 -0.0746,-29.92791 2.50858,-4.91722 10.09172,-11.7871 15.87957,-14.38596 6.60444,-2.96552 21.01638,-3.58459 28.32215,-1.21659 5.82209,1.88711 13.84887,6.45714 13.85173,7.88647 0.001,0.71796 -4.23638,6.15796 -10.15376,13.03418 -0.47153,0.54794 -1.53668,0.25715 -2.60742,-0.71186 -4.7544,-4.30268 -15.03779,-6.05086 -20.20701,-3.4352 -4.14493,2.09735 -7.03002,7.39895 -7.03002,12.91823 0,10.912 7.96674,17.50414 17.91632,14.82499 L 425,358.92291 V 351.46146 344 h 9 9 v 12.81586 12.81586 l -3.76312,2.11499 c -9.46413,5.31914 -26.43729,7.69636 -34.29156,4.8028 z M 266.23575,345.75 266.5,314.5 l 9.41643,-0.28973 c 6.85917,-0.21104 9.63865,0.0605 10.23469,1 0.45004,0.70935 0.82515,11.07723 0.83357,23.03973 L 287,360 h 13 13 v 8.5 8.5 H 289.48575 265.97151 Z M 451,345.5 V 314 h 10 10 v 31.5 31.5 h -10 -10 z m 30,-0.12033 v -31.62033 l 18.75,0.43047 c 20.68368,0.47486 25.12575,1.55323 30.62474,7.43451 3.54894,3.79566 6.03403,12.37669 5.24708,18.11817 C 533.65005,354.12813 524.38163,361 506.95078,361 H 501 v 8 8 H 491 481 Z M 514,343 c 2.41418,-2.41418 2.62978,-7.65585 0.4433,-10.77749 C 513.13157,330.34975 511.95131,330 506.9433,330 H 501 v 7.5 7.5 h 5.5 c 4.16667,0 5.98485,-0.48485 7.5,-2 z m 28.23575,2.75 0.26425,-31.25 18.5,0.009 c 16.88561,0.008 18.91386,0.19947 23.2426,2.1905 C 593.07002,320.75983 597,327.14464 597,337.42578 597,352.52755 586.67893,361 568.28207,361 c -3.45514,0 -6.22878,0.3375 -6.16365,0.75 0.0651,0.4125 0.0651,4.0125 0,8 L 562,377 h -10.01425 -10.01424 z m 32.53252,-1.58562 c 1.94511,-1.2346 3.26296,-6.95203 2.22916,-9.67113 -1.26279,-3.32139 -4.28763,-4.6501 -9.78147,-4.29665 L 562.5,330.5 l -0.29381,7.25 -0.29381,7.25 5.79381,-0.0153 c 3.1866,-0.008 6.36453,-0.37756 7.06208,-0.82031 z m -384.3877,-51.07852 c -8.72506,-2.3643 -19.90157,-7.87959 -23.73408,-11.7121 -2.58537,-2.58537 -2.81419,-3.3679 -2.44536,-8.36301 0.93546,-12.66909 17.05257,-35.34877 38.29887,-53.8934 4.93377,-4.3064 4.94702,-4.33347 1,-2.04385 -21.90305,12.7057 -41.18805,35.57977 -44.87655,53.22838 l -1.29539,6.19812 -1.74003,-4 c -4.16287,-9.56961 -5.8096,-19.44478 -5.33616,-32 0.73428,-19.47258 6.01472,-30.76238 21.74813,-46.49841 14.45812,-14.46054 31.74013,-23.66299 55.15429,-29.36896 15.86174,-3.86547 26.73957,-4.9364 44.45666,-4.3768 12.71195,0.40152 32.78143,2.80322 34.05335,4.07514 0.13649,0.13649 -0.39839,3.33837 -1.18862,7.11528 -7.05457,33.71727 -31.79506,79.43505 -55.49767,102.55375 -9.27109,9.0427 -16.05238,13.63908 -26.19922,17.75795 -8.62734,3.50206 -22.30589,4.0627 -32.39822,1.32791 z m 104.9941,-22.85405 c -4.24341,-4.24341 -4.58984,-5.75741 -2.31572,-10.12041 1.86375,-3.57567 2.5813,-4.1114 5.50683,-4.1114 2.30229,0 3.69054,-0.61041 4.39904,-1.93426 1.30776,-2.44358 1.34023,-8.62723 0.0579,-11.02334 -1.38374,-2.58554 1.43395,-7.86792 4.62391,-8.66855 4.13186,-1.03703 7.15825,1.12785 9.74111,6.96816 2.49596,5.64381 6.69709,8.4844 9.71853,6.57117 2.7388,-1.73426 7.59122,-1.02412 9.13462,1.33682 2.70623,4.13972 2.9884,6.56474 1.0704,9.19926 -2.604,3.57678 -8.3931,3.53345 -11.23868,-0.0841 C 324.93266,256.91597 324,254.69629 324,253.43253 c 0,-1.3824 -0.75993,-2.53895 -1.90762,-2.90321 -1.04919,-0.333 -2.16007,-1.26332 -2.46861,-2.06739 -1.20609,-3.14299 -12.13031,-0.34573 -13.27034,3.39802 -0.27469,0.90203 -0.92686,2.43791 -1.44929,3.41308 -0.61085,1.14023 -0.58479,2.45516 0.073,3.68426 1.53558,2.86926 1.19407,7.27695 -0.74938,9.67169 -2.23723,2.75676 -6.86188,3.59404 -8.85309,1.60283 z m 59.38107,-19.20931 c -3.11355,-2.44911 -3.98424,-6.53985 -2.26684,-10.65017 1.53663,-3.67767 2.75929,-4.56307 7.33938,-5.31486 2.78015,-0.45635 3.66794,-1.23917 4.89412,-4.31547 1.35488,-3.39921 1.33688,-4.0973 -0.18852,-7.31185 -1.28786,-2.71396 -1.45283,-4.2239 -0.69803,-6.38911 0.85828,-2.46206 0.63077,-3.17787 -1.72846,-5.43815 C 360.20522,209.78049 358.30704,209 355.77707,209 c -4.99846,0 -6.61897,-0.79359 -8.31406,-4.07152 -2.28242,-4.41372 -1.80979,-7.73554 1.58338,-11.12872 2.63217,-2.63216 3.54998,-2.96623 6.75,-2.45683 2.27079,0.36147 4.61688,1.64113 6.06426,3.30771 2.00012,2.30304 2.26655,3.40469 1.7445,7.21346 -0.84027,6.13044 1.82922,9.1359 8.11462,9.1359 3.30763,0 4.96834,0.5972 6.82568,2.45455 1.35,1.35 2.45455,2.925 2.45455,3.5 0,0.575 1.84446,1.04545 4.09879,1.04545 3.26478,0 4.66902,-0.61043 6.90121,-3 7.12861,-7.6312 18.79456,0.22138 14.34774,9.65774 -2.84066,6.02802 -10.19642,6.68768 -14.71345,1.31949 -3.39612,-4.03606 -9.69782,-4.43747 -12.55907,-0.79999 -1.14235,1.45226 -3.52074,2.87136 -5.40473,3.2248 -2.27389,0.42658 -3.73836,1.4515 -4.51755,3.16163 -1.41814,3.11249 -1.50353,8.10162 -0.15294,8.93633 1.88872,1.16729 1.01929,6.32363 -1.58889,9.42327 -3.15424,3.7486 -8.67737,4.22833 -12.65537,1.09923 z"
           id="path841" />
        <path
           style="fill:#064224"
           d="M 305,622.40874 C 255.61985,619.76345 207.12847,605.02671 165,579.86215 111.59037,547.95902 68.509161,500.17224 43.41776,445 24.010471,402.32628 15.853894,364.70653 15.773671,317.5 15.731253,292.53937 17.006459,278.14217 21.08806,257.5 40.341133,160.13009 106.78938,77.411265 198.37212,36.80599 261.96307,8.6115078 337.59435,3.5951711 405.55441,23.064372 c 33.33341,9.549359 65.31351,25.016691 93.14681,45.05092 12.76885,9.190931 13.44573,9.737133 27.24032,21.981175 39.32997,34.909183 69.98937,82.287093 86.3287,133.403533 10.88003,34.03741 14.09655,55.30174 14.14316,93.5 0.0315,25.8333 -0.19346,28.78903 -4.00635,52.63483 -6.20114,38.78185 -23.64297,82.44809 -46.66665,116.83161 -20.28954,30.30038 -50.31031,60.99352 -79.58128,81.36367 -35.44047,24.6636 -76.72037,41.89481 -120.15912,50.15727 -17.13761,3.25974 -52.07314,5.43527 -71,4.42136 z m 42,-13.88349 c 30.67603,-2.90253 55.71153,-8.76872 82,-19.21382 C 486.40519,566.50285 535.58117,525.83856 568.448,474 c 11.84053,-18.67524 23.45776,-42.85932 30.0429,-62.54156 19.21672,-57.43667 20.55928,-119.23552 3.84438,-176.95844 -7.81177,-26.97699 -22.26496,-57.64434 -38.64571,-82 -7.86295,-11.691 -23.30443,-30.15892 -35.16779,-42.0605 C 487.15114,68.935597 436.78848,41.796836 379.44102,30.104838 282.9393,10.430068 184.57928,39.996206 114.41377,109.76965 69.761009,154.1729 40.821332,211.22285 31.523528,273.17452 c -0.798582,5.32098 -2.007433,17.57786 -2.686337,27.23751 -3.483476,49.56394 8.135996,105.09039 31.231126,149.24548 3.40679,6.51337 6.860858,13.11566 7.675708,14.67176 2.464604,4.70658 18.221065,27.82949 22.60327,33.17073 22.265255,27.13794 43.395565,46.56973 69.215865,63.65211 55.74097,36.8775 121.82946,53.58082 187.43684,47.37314 z M 406,397.5 V 383 h 8.04545 c 7.30391,0 8.28199,0.23654 10.61175,2.56629 2.07556,2.07557 2.44673,3.17507 1.94107,5.75 -0.34387,1.75104 -1.249,3.65031 -2.01142,4.22059 -1.13682,0.85035 -0.94342,1.43129 1.07508,3.22921 1.94572,1.7331 2.39601,2.98218 2.14967,5.96312 -0.42786,5.17773 -4.61326,7.2671 -14.5616,7.26924 L 406,412 Z m 16,10.21023 c 3.10305,-1.5643 3.86859,-5.60193 1.40384,-7.4042 C 422.38095,399.55807 418.92192,399 415.30887,399 H 409 v 5 5 l 5.25,-0.0147 c 2.8875,-0.008 6.375,-0.58187 7.75,-1.27503 z M 422,394 c 2.26853,-2.26853 2.43543,-3.31787 0.96482,-6.06574 C 422.10524,386.32813 420.83293,386 415.46482,386 H 409 v 5 5 h 5.5 c 4.16667,0 5.98485,-0.48485 7.5,-2 z m 13,3.5 c 0,-12.22222 0.23563,-14.5 1.5,-14.5 1.26437,0 1.5,2.27778 1.5,14.5 0,12.22222 -0.23563,14.5 -1.5,14.5 -1.26437,0 -1.5,-2.27778 -1.5,-14.5 z m 18,12.7091 C 439.55334,402.86215 444.33415,383 459.54921,383 c 8.47932,0 14.76212,5.94559 14.88109,14.08239 0.15714,10.74792 -12.07306,18.23929 -21.4303,13.12671 z m 13.78125,-3.80143 c 3.16435,-2.07336 5.35132,-7.49482 4.57969,-11.35296 -0.34004,-1.70019 -2.13447,-4.40471 -4.02223,-6.06218 -11.06621,-9.71626 -26.18403,5.88942 -15.78208,16.29137 3.98259,3.98259 10.16504,4.43894 15.22462,1.12377 z M 477,410.64301 c 0,-0.74634 2.63576,-7.15884 5.85725,-14.25 4.40286,-9.69159 6.31154,-12.89301 7.68679,-12.89301 1.36179,0 3.17402,2.9401 7.08839,11.5 7.16322,15.66444 7.61883,17 5.79937,17 -0.80529,0 -2.21522,-1.575 -3.13319,-3.5 L 498.62958,405 H 490.5 482.37042 l -1.66903,3.5 C 479.02759,412.01 477,413.18392 477,410.64301 Z m 19,-10.0771 c 0,-2.51141 -5.27198,-13.69549 -6.06397,-12.86424 -1.34209,1.40861 -5.76088,13.14014 -5.17139,13.72963 0.31278,0.31279 2.96869,0.5687 5.90203,0.5687 3.96512,0 5.33333,-0.3679 5.33333,-1.43409 z m 19.5,10.02245 c -6.53413,-2.90412 -10.55559,-10.85986 -8.55444,-16.92341 2.89018,-8.75732 13.19505,-13.06472 21.65331,-9.05101 4.12173,1.95589 4.56158,3.91971 0.65113,2.90712 -1.5125,-0.39165 -4.88897,-0.93764 -7.50327,-1.21331 -4.39819,-0.46378 -5.01447,-0.24001 -8.25,2.99552 -2.71818,2.71818 -3.49673,4.30933 -3.49673,7.14639 0,8.03248 6.27936,13.46784 13.91166,12.04182 C 528.88832,407.56163 530,406.35398 530,401.87756 530,399.7449 530.45,398 531,398 c 0.55,0 1,2.42614 1,5.39142 0,5.3611 -0.0226,5.40047 -4.02024,7 -4.82649,1.93118 -8.44917,1.98835 -12.47976,0.19694 z m 25.16667,0.74497 C 540.3,410.96667 540,404.44167 540,396.83333 V 383 h 7.56574 c 10.9954,0 14.34681,2.27938 14.40246,9.79545 0.0242,3.27513 -0.56204,4.8893 -2.4682,6.79546 -3.12536,3.12536 -3.11471,3.73661 0.13945,8.00303 1.4517,1.90327 2.4161,3.68384 2.14313,3.95682 -1.08338,1.08338 -3.45849,-0.7903 -5.79587,-4.57226 C 553.62414,403.15578 553.32176,403 548.26393,403 H 543 v 4.5 c 0,4.19939 -0.74438,5.42229 -2.33333,3.83333 z m 15.46616,-12.96506 c 3.11877,-1.5381 4.38299,-5.52159 2.74167,-8.63879 -1.73787,-3.30056 -2.7661,-3.69736 -9.6245,-3.71417 L 543,386 v 6.33333 c 0,3.48334 0.32767,6.66101 0.72816,7.0615 1.11942,1.11942 9.45145,0.42989 12.40467,-1.02656 z m 22.03713,12.91551 c -1.28152,-0.24412 -4.09402,-2.20784 -6.25,-4.36382 C 568.3857,403.3857 568,402.49861 568,397.90429 c 0,-6.33815 2.29507,-10.47601 7.21016,-12.99946 4.77945,-2.45381 9.86408,-2.41776 14.80907,0.10498 4.86427,2.48157 6.98077,6.38174 6.98077,12.8638 0,9.57856 -8.21859,15.43158 -18.83004,13.41017 z m 11.62467,-4.91006 C 592.54625,404.60099 594,401.13068 594,396.3349 c 0,-2.7113 -0.82126,-4.35616 -3.52484,-7.05974 -3.31997,-3.31997 -3.82509,-3.49599 -8.69061,-3.02848 C 574.87908,386.91021 571,390.92373 571,397.40499 c 0,9.40654 10.40678,14.37262 18.79463,8.96873 z M 122.5,404.58836 c -6.32101,-2.8094 -10.5,-10.1198 -10.5,-18.3679 0,-11.27818 5.56829,-25.89133 19.2488,-50.51564 10.80777,-19.45349 11.27156,-20.40385 14.74049,-30.20482 4.33233,-12.24043 5.12703,-22.7457 2.15238,-28.4527 l -2.13437,-4.09489 2.80714,1.45163 c 4.3556,2.25237 9.09979,7.62802 10.18753,11.54351 1.48456,5.34394 1.21893,9.50583 -1.16096,18.18983 -1.18744,4.33289 -1.94243,8.09453 -1.67776,8.35921 0.26468,0.26467 4.09962,0.53409 8.52209,0.59869 4.42248,0.0646 8.61103,0.46985 9.30789,0.90053 0.89944,0.55589 1.06644,2.12064 0.57562,5.39363 L 173.87745,324 h -12.1949 -12.1949 l -4.49383,8.66136 c -2.4716,4.76375 -4.64382,9.03875 -4.82715,9.5 -0.18334,0.46125 7.57916,0.83864 17.25,0.83864 H 175 v 4.97971 4.97971 l -20.63535,0.27029 -20.63536,0.27029 -3.80326,8.5 c -2.09179,4.675 -3.83088,8.8375 -3.86464,9.25 -0.0338,0.4125 10.76213,0.75 23.99087,0.75 h 24.05226 l -0.30226,5.25 -0.30226,5.25 -25.75,0.26688 -25.75,0.26688 -0.18289,4.73312 c -0.32308,8.36126 0.19489,10.6581 3.26613,14.48312 3.17356,3.95246 2.47373,4.58595 -2.58324,2.33836 z m 216.31076,-28.05867 c -6.05095,-1.6665 -10.74154,-4.60379 -15.15755,-9.49179 -4.62731,-5.12188 -6.25044,-8.39436 -7.46869,-15.05807 -2.69614,-14.74761 4.27749,-28.5579 17.56496,-34.78492 5.1526,-2.4147 6.89426,-2.69491 16.75052,-2.69491 9.99532,0 11.56601,0.26148 17.19713,2.86284 3.40842,1.57456 6.9579,3.70348 7.88775,4.73095 1.78675,1.97434 2.08371,1.48489 -8.62696,14.21911 -0.37605,0.4471 -2.36568,-0.3285 -4.4214,-1.72355 -4.40345,-2.98827 -9.11654,-4.04315 -14.71144,-3.29271 -11.05769,1.48314 -15.13596,16.62871 -6.79491,25.23448 3.73294,3.85143 8.3147,4.99165 13.95501,3.47287 L 359,358.92291 V 351.46146 344 h 8.42385 8.42386 l 0.32614,7.75 c 0.17938,4.2625 0.19258,10.29115 0.0293,13.397 l -0.29683,5.647 -4.87094,2.09543 c -11.17336,4.80665 -23.09834,6.15376 -32.22464,3.64026 z m 66.13456,0.0198 c -9.27132,-3.41562 -16.43727,-8.99466 -19.92596,-15.51333 -4.06355,-7.59282 -4.09956,-22.03833 -0.0746,-29.92791 2.50858,-4.91722 10.09172,-11.7871 15.87957,-14.38596 6.60444,-2.96552 21.01638,-3.58459 28.32215,-1.21659 5.82209,1.88711 13.84887,6.45714 13.85173,7.88647 0.001,0.71796 -4.23638,6.15796 -10.15376,13.03418 -0.47153,0.54794 -1.53668,0.25715 -2.60742,-0.71186 -4.7544,-4.30268 -15.03779,-6.05086 -20.20701,-3.4352 -4.14493,2.09735 -7.03002,7.39895 -7.03002,12.91823 0,10.912 7.96674,17.50414 17.91632,14.82499 L 425,358.92291 V 351.46146 344 h 9 9 v 12.81586 12.81586 l -3.76312,2.11499 c -9.46413,5.31914 -26.43729,7.69636 -34.29156,4.8028 z M 266.23575,345.75 266.5,314.5 l 9.41643,-0.28973 c 6.85917,-0.21104 9.63865,0.0605 10.23469,1 0.45004,0.70935 0.82515,11.07723 0.83357,23.03973 L 287,360 h 13 13 v 8.5 8.5 H 289.48575 265.97151 Z M 451,345.5 V 314 h 10 10 v 31.5 31.5 h -10 -10 z m 30,-0.12033 v -31.62033 l 18.75,0.43047 c 20.68368,0.47486 25.12575,1.55323 30.62474,7.43451 3.54894,3.79566 6.03403,12.37669 5.24708,18.11817 C 533.65005,354.12813 524.38163,361 506.95078,361 H 501 v 8 8 H 491 481 Z M 514,343 c 2.41418,-2.41418 2.62978,-7.65585 0.4433,-10.77749 C 513.13157,330.34975 511.95131,330 506.9433,330 H 501 v 7.5 7.5 h 5.5 c 4.16667,0 5.98485,-0.48485 7.5,-2 z m 28.23575,2.75 0.26425,-31.25 18.5,0.009 c 16.88561,0.008 18.91386,0.19947 23.2426,2.1905 C 593.07002,320.75983 597,327.14464 597,337.42578 597,352.52755 586.67893,361 568.28207,361 c -3.45514,0 -6.22878,0.3375 -6.16365,0.75 0.0651,0.4125 0.0651,4.0125 0,8 L 562,377 h -10.01425 -10.01424 z m 32.53252,-1.58562 c 1.94511,-1.2346 3.26296,-6.95203 2.22916,-9.67113 -1.26279,-3.32139 -4.28763,-4.6501 -9.78147,-4.29665 L 562.5,330.5 l -0.29381,7.25 -0.29381,7.25 5.79381,-0.0153 c 3.1866,-0.008 6.36453,-0.37756 7.06208,-0.82031 z m -384.3877,-51.07852 c -8.72506,-2.3643 -19.90157,-7.87959 -23.73408,-11.7121 -2.58537,-2.58537 -2.81419,-3.3679 -2.44536,-8.36301 0.93546,-12.66909 17.05257,-35.34877 38.29887,-53.8934 4.93377,-4.3064 4.94702,-4.33347 1,-2.04385 -21.90305,12.7057 -41.18805,35.57977 -44.87655,53.22838 l -1.29539,6.19812 -1.74003,-4 c -4.16287,-9.56961 -5.8096,-19.44478 -5.33616,-32 0.73428,-19.47258 6.01472,-30.76238 21.74813,-46.49841 14.45812,-14.46054 31.74013,-23.66299 55.15429,-29.36896 15.86174,-3.86547 26.73957,-4.9364 44.45666,-4.3768 12.71195,0.40152 32.78143,2.80322 34.05335,4.07514 0.13649,0.13649 -0.39839,3.33837 -1.18862,7.11528 -7.05457,33.71727 -31.79506,79.43505 -55.49767,102.55375 -9.27109,9.0427 -16.05238,13.63908 -26.19922,17.75795 -8.62734,3.50206 -22.30589,4.0627 -32.39822,1.32791 z M 354.75574,251.0225 c -3.11355,-2.44911 -3.98424,-6.53985 -2.26684,-10.65017 1.53663,-3.67767 2.75929,-4.56307 7.33938,-5.31486 2.78015,-0.45635 3.66794,-1.23917 4.89412,-4.31547 1.35488,-3.39921 1.33688,-4.0973 -0.18852,-7.31185 -1.28786,-2.71396 -1.45283,-4.2239 -0.69803,-6.38911 0.85828,-2.46206 0.63077,-3.17787 -1.72846,-5.43815 C 360.20522,209.78049 358.30704,209 355.77707,209 c -4.99846,0 -6.61897,-0.79359 -8.31406,-4.07152 -2.28242,-4.41372 -1.80979,-7.73554 1.58338,-11.12872 2.63217,-2.63216 3.54998,-2.96623 6.75,-2.45683 2.27079,0.36147 4.61688,1.64113 6.06426,3.30771 2.00012,2.30304 2.26655,3.40469 1.7445,7.21346 -0.84027,6.13044 1.82922,9.1359 8.11462,9.1359 3.30763,0 4.96834,0.5972 6.82568,2.45455 1.35,1.35 2.45455,2.925 2.45455,3.5 0,0.575 1.84446,1.04545 4.09879,1.04545 3.26478,0 4.66902,-0.61043 6.90121,-3 7.12861,-7.6312 18.79456,0.22138 14.34774,9.65774 -2.84066,6.02802 -10.19642,6.68768 -14.71345,1.31949 -3.39612,-4.03606 -9.69782,-4.43747 -12.55907,-0.79999 -1.14235,1.45226 -3.52074,2.87136 -5.40473,3.2248 -2.27389,0.42658 -3.73836,1.4515 -4.51755,3.16163 -1.41814,3.11249 -1.50353,8.10162 -0.15294,8.93633 1.88872,1.16729 1.01929,6.32363 -1.58889,9.42327 -3.15424,3.7486 -8.67737,4.22833 -12.65537,1.09923 z"
           id="path839" />
      </g>
    </g>
  </g>
</svg>
